<svg height="32" id="icon" viewBox="0 0 32 32" width="32"
  xmlns="http://www.w3.org/2000/svg">
  <defs>
    <style>
      .cls-1 {
        fill: none;
      }
    </style>
  </defs>
  <title/>
  <path d="M26,4H6A2,2,0,0,0,4,6V26a2,2,0,0,0,2,2H26a2,2,0,0,0,2-2V6A2,2,0,0,0,26,4ZM14,21.5,9,16.5427,10.5908,15,14,18.3456,21.4087,11l1.5918,1.5772Z" transform="translate(0 0)"/>
  <path class="cls-1" d="M14,21.5,9,16.5427,10.5908,15,14,18.3456,21.4087,11l1.5918,1.5772Z" id="inner-path" transform="translate(0 0)"/>
  <rect class="cls-1" data-name="&lt;Transparent Rectangle&gt;" height="32" id="_Transparent_Rectangle_" width="32"/>
</svg>