<svg version="1.0"
    xmlns="http://www.w3.org/2000/svg" width="512.000000pt" height="512.000000pt" viewBox="0 0 512.000000 512.000000" preserveAspectRatio="xMidYMid meet">

    <g transform="translate(0.000000,512.000000) scale(0.100000,-0.100000)" fill="#000000" stroke="none">
        <path d="M2315 4839 c-544 -79 -1001 -463 -1174 -986 -63 -191 -72 -263 -78
                -643 -3 -256 -8 -348 -20 -389 -19 -69 -72 -175 -163 -326 -129 -213 -159
                -290 -180 -456 -33 -262 64 -527 263 -715 91 -87 185 -144 303 -183 92 -31
                358 -69 754 -108 243 -24 756 -24 1010 0 294 28 638 75 720 97 214 60 398 213
                505 420 62 122 86 211 92 356 10 211 -26 329 -174 576 -193 324 -185 293 -193
                743 -7 323 -10 382 -29 467 -129 590 -592 1037 -1179 1138 -122 21 -343 25
                -457 9z m478 -338 c210 -56 369 -146 523 -296 159 -156 253 -316 312 -535 24
                -91 25 -111 32 -470 8 -398 8 -406 63 -551 34 -89 55 -129 164 -311 110 -183
                133 -243 141 -355 10 -158 -43 -305 -147 -411 -62 -63 -167 -123 -246 -141
                -64 -14 -388 -55 -620 -78 -250 -24 -744 -24 -985 0 -282 29 -570 66 -634 82
                -160 41 -294 168 -353 336 -21 60 -26 92 -26 174 0 132 22 195 140 390 113
                187 145 251 185 368 l32 92 7 365 c7 389 14 454 64 601 132 387 467 677 872
                754 115 21 372 14 476 -14z"/>
        <path d="M2025 830 c-46 -10 -84 -39 -106 -81 -43 -85 -16 -154 106 -275 66
                -66 100 -90 176 -128 123 -61 211 -79 354 -73 190 8 336 70 470 202 87 85 130
                164 119 219 -19 105 -126 166 -222 127 -15 -7 -58 -45 -95 -86 -92 -101 -165
                -137 -286 -143 -68 -3 -98 0 -143 16 -76 27 -140 73 -189 135 -23 29 -49 57
                -59 64 -26 18 -91 30 -125 23z"/>
    </g>
</svg>
